<?xml version="1.0" standalone="no"?>
<!DOCTYPE svg PUBLIC "-//W3C//DTD SVG 20010904//EN"
 "http://www.w3.org/TR/2001/REC-SVG-20010904/DTD/svg10.dtd">
<svg version="1.0" xmlns="http://www.w3.org/2000/svg"
 width="1200.000000pt" height="1200.000000pt" viewBox="0 0 1200.000000 1200.000000"
 preserveAspectRatio="xMidYMid meet">

<g transform="translate(0.000000,1200.000000) scale(0.100000,-0.100000)"
fill="#000000" stroke="none">
<path d="M9920 10395 l0 -585 75 -75 c41 -41 77 -75 80 -75 3 0 5 297 5 660
l0 660 -80 0 -80 0 0 -585z"/>
<path d="M10240 10225 l0 -755 560 0 560 0 0 -872 c0 -941 3 -895 -50 -763
-32 80 -186 387 -251 500 -100 175 -355 552 -366 541 -3 -2 23 -55 56 -118 85
-157 283 -553 305 -608 10 -25 24 -61 33 -80 8 -19 20 -46 25 -60 6 -14 14
-33 19 -42 5 -10 9 -25 9 -33 0 -8 5 -25 12 -38 24 -48 28 -57 28 -76 0 -11 5
-23 10 -26 6 -3 10 -17 10 -30 0 -13 5 -27 10 -30 6 -3 10 -17 10 -30 0 -13 5
-27 10 -30 6 -3 10 -19 10 -35 0 -16 5 -32 10 -35 6 -3 10 -19 10 -35 0 -16 5
-32 10 -35 6 -3 10 -19 10 -35 0 -16 5 -32 10 -35 6 -3 10 -21 10 -40 0 -19 4
-36 9 -39 5 -3 11 -23 14 -43 3 -21 11 -60 17 -88 56 -251 88 -516 98 -812 14
-411 -12 -791 -78 -1123 -6 -30 -13 -71 -16 -90 -3 -19 -8 -42 -11 -50 -4 -8
-6 -18 -5 -21 1 -6 -44 -189 -68 -274 -13 -48 -41 -138 -50 -160 -5 -11 -18
-49 -30 -85 -11 -36 -25 -73 -30 -82 -6 -10 -10 -23 -10 -28 0 -6 -9 -30 -20
-52 -11 -23 -20 -45 -20 -50 0 -4 -11 -31 -24 -60 -13 -29 -34 -75 -46 -103
-184 -420 -483 -885 -788 -1225 -105 -116 -410 -422 -502 -501 -140 -121 -316
-259 -420 -329 -36 -24 -66 -47 -68 -52 -2 -4 -10 -8 -18 -8 -8 0 -14 -4 -14
-10 0 -5 -7 -10 -15 -10 -8 0 -15 -4 -15 -10 0 -5 -7 -10 -15 -10 -8 0 -15 -4
-15 -10 0 -5 -7 -10 -15 -10 -8 0 -15 -4 -15 -10 0 -5 -5 -10 -11 -10 -6 0
-30 -13 -54 -30 -24 -16 -48 -30 -54 -30 -6 0 -11 -4 -11 -9 0 -5 -8 -11 -17
-14 -10 -4 -38 -18 -63 -33 -86 -51 -116 -67 -275 -148 -195 -100 -284 -140
-440 -201 -66 -25 -128 -51 -137 -56 -10 -5 -26 -9 -36 -9 -10 0 -22 -4 -27
-8 -6 -5 -44 -19 -85 -31 -41 -13 -84 -27 -95 -31 -11 -4 -40 -13 -65 -20 -25
-7 -54 -16 -65 -20 -21 -9 -60 -18 -113 -27 -18 -3 -35 -9 -38 -14 -3 -5 -20
-9 -39 -9 -19 0 -37 -4 -40 -10 -3 -5 -23 -10 -44 -10 -20 0 -41 -4 -46 -9 -6
-5 -28 -11 -50 -14 -22 -4 -65 -11 -95 -17 -175 -35 -328 -56 -595 -82 -169
-17 -776 -17 -955 0 -229 21 -415 47 -585 81 -114 23 -162 32 -198 38 -20 3
-40 9 -43 14 -3 5 -20 9 -39 9 -19 0 -37 4 -40 10 -3 5 -21 10 -40 10 -19 0
-37 5 -40 10 -3 6 -19 10 -35 10 -16 0 -32 5 -35 10 -3 6 -17 10 -31 10 -13 0
-32 4 -42 9 -9 5 -75 27 -147 50 -71 23 -139 46 -150 50 -11 5 -47 19 -80 31
-33 12 -73 28 -90 35 -16 7 -48 20 -70 30 -98 40 -131 55 -310 145 -197 100
-276 141 -285 150 -5 5 -13 10 -89 52 -20 11 -48 29 -63 39 -14 11 -31 19 -37
19 -6 0 -11 5 -11 10 0 6 -7 10 -15 10 -8 0 -15 5 -15 10 0 6 -7 10 -15 10 -8
0 -15 5 -15 10 0 6 -5 10 -11 10 -10 0 -99 57 -109 70 -3 4 -34 26 -70 50 -65
44 -132 94 -158 118 -8 7 -30 25 -50 40 -273 202 -667 606 -906 927 -37 50
-73 97 -79 106 -7 8 -16 22 -22 31 -5 8 -41 62 -80 119 -38 58 -75 114 -82
124 -7 11 -45 74 -85 140 -40 65 -75 124 -77 129 -2 6 -9 16 -15 23 -29 33
-36 43 -36 53 0 5 -4 10 -10 10 -5 0 0 -21 11 -47 11 -27 28 -66 37 -88 43
-103 199 -404 276 -534 360 -601 857 -1142 1420 -1544 l100 -72 -1117 -3
-1117 -2 0 -485 0 -485 5370 0 5370 0 0 5095 0 5095 -740 0 -740 0 0 -755z
m1120 -6695 l0 -520 -291 0 -291 0 30 38 c143 183 402 648 513 919 19 45 35
83 37 83 1 0 2 -234 2 -520z m-1440 -1610 l0 -160 -211 0 -211 0 103 74 c57
41 151 113 209 160 58 46 106 85 108 85 1 1 2 -71 2 -159z m-5992 -569 c43
-22 127 -60 188 -85 60 -26 118 -51 129 -56 11 -4 27 -11 35 -13 8 -3 -87 -6
-212 -6 l-228 -1 0 100 c0 55 2 100 5 100 3 0 40 -18 83 -39z m4552 -151 c0
-5 -12 -10 -27 -9 -25 0 -26 1 -8 9 27 12 35 12 35 0z"/>
</g>
</svg>
